<mxfile host="app.diagrams.net" modified="2024-04-16T15:05:21.498Z" agent="Mozilla/5.0 (Windows NT 10.0; Win64; x64) AppleWebKit/537.36 (KHTML, like Gecko) Chrome/123.0.0.0 Safari/537.36 Edg/123.0.0.0" etag="EAQdTUcgqZosnYtC4Cs_" version="22.1.17" type="github">
  <diagram name="Page-1" id="64c3da0e-402f-94eb-ee01-a36477274f13">
    <mxGraphModel dx="4356" dy="1698" grid="1" gridSize="10" guides="1" tooltips="1" connect="1" arrows="1" fold="1" page="1" pageScale="1" pageWidth="1169" pageHeight="826" background="none" math="0" shadow="0">
      <root>
        <mxCell id="0" />
        <mxCell id="1" parent="0" />
        <mxCell id="2" value="Bar Recommendation System" style="whiteSpace=wrap;rounded=1;shadow=1;fillColor=#10739E;strokeColor=none;fontColor=#FFFFFF;fontStyle=1;fontSize=24" parent="1" vertex="1">
          <mxGeometry x="-580" y="129" width="340" height="60" as="geometry" />
        </mxCell>
        <mxCell id="3" value="Customer" style="whiteSpace=wrap;rounded=1;fillColor=#F2931E;strokeColor=none;shadow=1;fontColor=#FFFFFF;fontStyle=1;fontSize=14" parent="1" vertex="1">
          <mxGeometry x="-850" y="268.9999999999998" width="140" height="60" as="geometry" />
        </mxCell>
        <mxCell id="4" value="Bars" style="whiteSpace=wrap;rounded=1;fillColor=#F2931E;strokeColor=none;shadow=1;fontColor=#FFFFFF;fontStyle=1;fontSize=14" parent="1" vertex="1">
          <mxGeometry x="-480" y="268.9999999999998" width="140" height="60" as="geometry" />
        </mxCell>
        <mxCell id="23" value="Prfered Flavors" style="whiteSpace=wrap;rounded=1;fillColor=#999999;strokeColor=none;shadow=1;fontColor=#FFFFFF;fontStyle=0" parent="1" vertex="1">
          <mxGeometry x="-740" y="379.0000000000001" width="120" height="60" as="geometry" />
        </mxCell>
        <mxCell id="24" value="Budget" style="whiteSpace=wrap;rounded=1;fillColor=#999999;strokeColor=none;shadow=1;fontColor=#FFFFFF;fontStyle=0" parent="1" vertex="1">
          <mxGeometry x="-739.9999999999999" y="459.0000000000001" width="120" height="60" as="geometry" />
        </mxCell>
        <mxCell id="25" value="District" style="whiteSpace=wrap;rounded=1;fillColor=#999999;strokeColor=none;shadow=1;fontColor=#FFFFFF;fontStyle=0" parent="1" vertex="1">
          <mxGeometry x="-740" y="539.0000000000001" width="120" height="60" as="geometry" />
        </mxCell>
        <mxCell id="229" value="" style="edgeStyle=elbowEdgeStyle;elbow=vertical;rounded=0;fontColor=#000000;endArrow=none;endFill=0;strokeWidth=8;strokeColor=#23445D;" parent="1" source="2" target="3" edge="1">
          <mxGeometry width="100" height="100" relative="1" as="geometry">
            <mxPoint x="-470" y="239" as="sourcePoint" />
            <mxPoint x="-370" y="139" as="targetPoint" />
          </mxGeometry>
        </mxCell>
        <mxCell id="230" value="" style="edgeStyle=elbowEdgeStyle;elbow=vertical;rounded=0;fontColor=#000000;endArrow=none;endFill=0;strokeWidth=8;strokeColor=#23445D;" parent="1" source="2" target="4" edge="1">
          <mxGeometry width="100" height="100" relative="1" as="geometry">
            <mxPoint x="-460" y="249" as="sourcePoint" />
            <mxPoint x="-360" y="149" as="targetPoint" />
          </mxGeometry>
        </mxCell>
        <mxCell id="231" value="" style="edgeStyle=elbowEdgeStyle;elbow=vertical;rounded=0;fontColor=#000000;endArrow=none;endFill=0;strokeWidth=8;strokeColor=#23445D;entryX=0.5;entryY=0;entryDx=0;entryDy=0;" parent="1" source="2" target="PwZLuehJ7hWIkMbw8IJj-255" edge="1">
          <mxGeometry width="100" height="100" relative="1" as="geometry">
            <mxPoint x="-450" y="259" as="sourcePoint" />
            <mxPoint x="-40" y="268.9999999999998" as="targetPoint" />
          </mxGeometry>
        </mxCell>
        <mxCell id="PwZLuehJ7hWIkMbw8IJj-236" value="" style="edgeStyle=elbowEdgeStyle;elbow=horizontal;rounded=0;fontColor=#000000;endArrow=none;endFill=0;strokeWidth=8;strokeColor=#23445D;exitX=0.5;exitY=1;exitDx=0;exitDy=0;entryX=0;entryY=0.5;entryDx=0;entryDy=0;" parent="1" source="3" target="23" edge="1">
          <mxGeometry width="100" height="100" relative="1" as="geometry">
            <mxPoint x="-780" y="389" as="sourcePoint" />
            <mxPoint x="-780" y="409" as="targetPoint" />
            <Array as="points">
              <mxPoint x="-780" y="379" />
            </Array>
          </mxGeometry>
        </mxCell>
        <mxCell id="PwZLuehJ7hWIkMbw8IJj-237" value="" style="edgeStyle=elbowEdgeStyle;elbow=horizontal;rounded=0;fontColor=#000000;endArrow=none;endFill=0;strokeWidth=8;strokeColor=#23445D;exitX=0.5;exitY=1;exitDx=0;exitDy=0;" parent="1" target="24" edge="1">
          <mxGeometry width="100" height="100" relative="1" as="geometry">
            <mxPoint x="-780" y="329" as="sourcePoint" />
            <mxPoint x="-770" y="409" as="targetPoint" />
            <Array as="points">
              <mxPoint x="-780" y="379" />
            </Array>
          </mxGeometry>
        </mxCell>
        <mxCell id="PwZLuehJ7hWIkMbw8IJj-238" value="" style="edgeStyle=elbowEdgeStyle;elbow=horizontal;rounded=0;fontColor=#000000;endArrow=none;endFill=0;strokeWidth=8;strokeColor=#23445D;exitX=0.5;exitY=1;exitDx=0;exitDy=0;" parent="1" target="25" edge="1">
          <mxGeometry width="100" height="100" relative="1" as="geometry">
            <mxPoint x="-780" y="329" as="sourcePoint" />
            <mxPoint x="-770" y="409" as="targetPoint" />
            <Array as="points">
              <mxPoint x="-780" y="379" />
            </Array>
          </mxGeometry>
        </mxCell>
        <mxCell id="PwZLuehJ7hWIkMbw8IJj-241" value="Menu" style="whiteSpace=wrap;rounded=1;fillColor=#999999;strokeColor=none;shadow=1;fontColor=#FFFFFF;fontStyle=0" parent="1" vertex="1">
          <mxGeometry x="-390" y="379.0000000000001" width="120" height="60" as="geometry" />
        </mxCell>
        <mxCell id="PwZLuehJ7hWIkMbw8IJj-242" value="Flavor Trend" style="whiteSpace=wrap;rounded=1;fillColor=#999999;strokeColor=none;shadow=1;fontColor=#FFFFFF;fontStyle=0" parent="1" vertex="1">
          <mxGeometry x="-389.9999999999999" y="459.0000000000001" width="120" height="60" as="geometry" />
        </mxCell>
        <mxCell id="PwZLuehJ7hWIkMbw8IJj-243" value="Price Range" style="whiteSpace=wrap;rounded=1;fillColor=#999999;strokeColor=none;shadow=1;fontColor=#FFFFFF;fontStyle=0" parent="1" vertex="1">
          <mxGeometry x="-390" y="539.0000000000001" width="120" height="60" as="geometry" />
        </mxCell>
        <mxCell id="PwZLuehJ7hWIkMbw8IJj-244" value="Target Audience" style="whiteSpace=wrap;rounded=1;fillColor=#999999;strokeColor=none;shadow=1;fontColor=#FFFFFF;fontStyle=0" parent="1" vertex="1">
          <mxGeometry x="-389.9999999999998" y="619.0000000000001" width="120" height="60" as="geometry" />
        </mxCell>
        <mxCell id="PwZLuehJ7hWIkMbw8IJj-245" value="Style&#xa;(eg. Sport Bar, English Pub,&#xa;Speakeasy etc.)" style="whiteSpace=wrap;rounded=1;fillColor=#999999;strokeColor=none;shadow=1;fontColor=#FFFFFF;fontStyle=0" parent="1" vertex="1">
          <mxGeometry x="-389.99999999999966" y="699.0000000000001" width="120" height="60" as="geometry" />
        </mxCell>
        <mxCell id="PwZLuehJ7hWIkMbw8IJj-246" value="" style="edgeStyle=elbowEdgeStyle;elbow=horizontal;rounded=0;fontColor=#000000;endArrow=none;endFill=0;strokeWidth=8;strokeColor=#23445D;entryX=0;entryY=0.5;entryDx=0;entryDy=0;exitX=0.5;exitY=1;exitDx=0;exitDy=0;" parent="1" source="4" target="PwZLuehJ7hWIkMbw8IJj-241" edge="1">
          <mxGeometry width="100" height="100" relative="1" as="geometry">
            <mxPoint x="-410" y="379" as="sourcePoint" />
            <mxPoint x="-360" y="779" as="targetPoint" />
            <Array as="points">
              <mxPoint x="-410" y="429" />
            </Array>
          </mxGeometry>
        </mxCell>
        <mxCell id="PwZLuehJ7hWIkMbw8IJj-247" value="" style="edgeStyle=elbowEdgeStyle;elbow=horizontal;rounded=0;fontColor=#000000;endArrow=none;endFill=0;strokeWidth=8;strokeColor=#23445D;entryX=0;entryY=0.5;entryDx=0;entryDy=0;" parent="1" target="PwZLuehJ7hWIkMbw8IJj-242" edge="1">
          <mxGeometry width="100" height="100" relative="1" as="geometry">
            <mxPoint x="-410" y="329" as="sourcePoint" />
            <mxPoint x="-390" y="409" as="targetPoint" />
            <Array as="points">
              <mxPoint x="-410" y="429" />
            </Array>
          </mxGeometry>
        </mxCell>
        <mxCell id="PwZLuehJ7hWIkMbw8IJj-248" value="" style="edgeStyle=elbowEdgeStyle;elbow=horizontal;rounded=0;fontColor=#000000;endArrow=none;endFill=0;strokeWidth=8;strokeColor=#23445D;entryX=0;entryY=0.5;entryDx=0;entryDy=0;exitX=0.5;exitY=1;exitDx=0;exitDy=0;" parent="1" source="4" target="PwZLuehJ7hWIkMbw8IJj-243" edge="1">
          <mxGeometry width="100" height="100" relative="1" as="geometry">
            <mxPoint x="-410" y="339" as="sourcePoint" />
            <mxPoint x="-390" y="499" as="targetPoint" />
            <Array as="points">
              <mxPoint x="-410" y="439" />
            </Array>
          </mxGeometry>
        </mxCell>
        <mxCell id="PwZLuehJ7hWIkMbw8IJj-249" value="Prefered Activity" style="whiteSpace=wrap;rounded=1;fillColor=#999999;strokeColor=none;shadow=1;fontColor=#FFFFFF;fontStyle=0" parent="1" vertex="1">
          <mxGeometry x="-740" y="614.0000000000001" width="120" height="60" as="geometry" />
        </mxCell>
        <mxCell id="PwZLuehJ7hWIkMbw8IJj-250" value="" style="edgeStyle=elbowEdgeStyle;elbow=horizontal;rounded=0;fontColor=#000000;endArrow=none;endFill=0;strokeWidth=8;strokeColor=#23445D;entryX=0;entryY=0.5;entryDx=0;entryDy=0;exitX=0.5;exitY=1;exitDx=0;exitDy=0;" parent="1" source="3" target="PwZLuehJ7hWIkMbw8IJj-249" edge="1">
          <mxGeometry width="100" height="100" relative="1" as="geometry">
            <mxPoint x="-780" y="349" as="sourcePoint" />
            <mxPoint x="-780" y="644" as="targetPoint" />
            <Array as="points">
              <mxPoint x="-780" y="614" />
            </Array>
          </mxGeometry>
        </mxCell>
        <mxCell id="PwZLuehJ7hWIkMbw8IJj-251" value="" style="edgeStyle=elbowEdgeStyle;elbow=horizontal;rounded=0;fontColor=#000000;endArrow=none;endFill=0;strokeWidth=8;strokeColor=#23445D;entryX=0;entryY=0.5;entryDx=0;entryDy=0;exitX=0.5;exitY=1;exitDx=0;exitDy=0;" parent="1" source="4" target="PwZLuehJ7hWIkMbw8IJj-244" edge="1">
          <mxGeometry width="100" height="100" relative="1" as="geometry">
            <mxPoint x="-400" y="339" as="sourcePoint" />
            <mxPoint x="-380" y="579" as="targetPoint" />
            <Array as="points">
              <mxPoint x="-410" y="489" />
            </Array>
          </mxGeometry>
        </mxCell>
        <mxCell id="PwZLuehJ7hWIkMbw8IJj-252" value="" style="edgeStyle=elbowEdgeStyle;elbow=horizontal;rounded=0;fontColor=#000000;endArrow=none;endFill=0;strokeWidth=8;strokeColor=#23445D;entryX=0;entryY=0.5;entryDx=0;entryDy=0;exitX=0.5;exitY=1;exitDx=0;exitDy=0;" parent="1" source="4" target="PwZLuehJ7hWIkMbw8IJj-245" edge="1">
          <mxGeometry width="100" height="100" relative="1" as="geometry">
            <mxPoint x="-410" y="339" as="sourcePoint" />
            <mxPoint x="-390" y="659" as="targetPoint" />
            <Array as="points">
              <mxPoint x="-410" y="499" />
            </Array>
          </mxGeometry>
        </mxCell>
        <mxCell id="PwZLuehJ7hWIkMbw8IJj-253" value="Type&#xa;(eg. Worker, Student, Businessman etc.)" style="whiteSpace=wrap;rounded=1;fillColor=#999999;strokeColor=none;shadow=1;fontColor=#FFFFFF;fontStyle=0" parent="1" vertex="1">
          <mxGeometry x="-740" y="689.0000000000001" width="120" height="60" as="geometry" />
        </mxCell>
        <mxCell id="PwZLuehJ7hWIkMbw8IJj-254" value="" style="edgeStyle=elbowEdgeStyle;elbow=horizontal;rounded=0;fontColor=#000000;endArrow=none;endFill=0;strokeWidth=8;strokeColor=#23445D;exitX=0.5;exitY=1;exitDx=0;exitDy=0;entryX=0;entryY=0.5;entryDx=0;entryDy=0;" parent="1" target="PwZLuehJ7hWIkMbw8IJj-253" edge="1">
          <mxGeometry width="100" height="100" relative="1" as="geometry">
            <mxPoint x="-780" y="639" as="sourcePoint" />
            <mxPoint x="-780" y="719" as="targetPoint" />
            <Array as="points">
              <mxPoint x="-780" y="689" />
            </Array>
          </mxGeometry>
        </mxCell>
        <mxCell id="PwZLuehJ7hWIkMbw8IJj-255" value="Cocktail" style="whiteSpace=wrap;rounded=1;fillColor=#F2931E;strokeColor=none;shadow=1;fontColor=#FFFFFF;fontStyle=1;fontSize=14" parent="1" vertex="1">
          <mxGeometry x="-110" y="268.9999999999998" width="140" height="60" as="geometry" />
        </mxCell>
        <mxCell id="PwZLuehJ7hWIkMbw8IJj-256" value="Ingredients" style="whiteSpace=wrap;rounded=1;fillColor=#999999;strokeColor=none;shadow=1;fontColor=#FFFFFF;fontStyle=0" parent="1" vertex="1">
          <mxGeometry x="-20" y="379.0000000000001" width="120" height="60" as="geometry" />
        </mxCell>
        <mxCell id="PwZLuehJ7hWIkMbw8IJj-257" value="Flavor" style="whiteSpace=wrap;rounded=1;fillColor=#999999;strokeColor=none;shadow=1;fontColor=#FFFFFF;fontStyle=0" parent="1" vertex="1">
          <mxGeometry x="-19.999999999999886" y="459.0000000000001" width="120" height="60" as="geometry" />
        </mxCell>
        <mxCell id="PwZLuehJ7hWIkMbw8IJj-258" value="Average Price" style="whiteSpace=wrap;rounded=1;fillColor=#999999;strokeColor=none;shadow=1;fontColor=#FFFFFF;fontStyle=0" parent="1" vertex="1">
          <mxGeometry x="-20" y="539.0000000000001" width="120" height="60" as="geometry" />
        </mxCell>
        <mxCell id="PwZLuehJ7hWIkMbw8IJj-259" value="Offered By" style="whiteSpace=wrap;rounded=1;fillColor=#999999;strokeColor=none;shadow=1;fontColor=#FFFFFF;fontStyle=0" parent="1" vertex="1">
          <mxGeometry x="-19.999999999999773" y="619.0000000000001" width="120" height="60" as="geometry" />
        </mxCell>
        <mxCell id="PwZLuehJ7hWIkMbw8IJj-261" value="" style="edgeStyle=elbowEdgeStyle;elbow=horizontal;rounded=0;fontColor=#000000;endArrow=none;endFill=0;strokeWidth=8;strokeColor=#23445D;entryX=0;entryY=0.5;entryDx=0;entryDy=0;exitX=0.5;exitY=1;exitDx=0;exitDy=0;" parent="1" source="PwZLuehJ7hWIkMbw8IJj-255" target="PwZLuehJ7hWIkMbw8IJj-256" edge="1">
          <mxGeometry width="100" height="100" relative="1" as="geometry">
            <mxPoint x="-40" y="379" as="sourcePoint" />
            <mxPoint x="10" y="779" as="targetPoint" />
            <Array as="points">
              <mxPoint x="-40" y="429" />
            </Array>
          </mxGeometry>
        </mxCell>
        <mxCell id="PwZLuehJ7hWIkMbw8IJj-262" value="" style="edgeStyle=elbowEdgeStyle;elbow=horizontal;rounded=0;fontColor=#000000;endArrow=none;endFill=0;strokeWidth=8;strokeColor=#23445D;entryX=0;entryY=0.5;entryDx=0;entryDy=0;" parent="1" target="PwZLuehJ7hWIkMbw8IJj-257" edge="1">
          <mxGeometry width="100" height="100" relative="1" as="geometry">
            <mxPoint x="-40" y="329" as="sourcePoint" />
            <mxPoint x="-20" y="409" as="targetPoint" />
            <Array as="points">
              <mxPoint x="-40" y="429" />
            </Array>
          </mxGeometry>
        </mxCell>
        <mxCell id="PwZLuehJ7hWIkMbw8IJj-263" value="" style="edgeStyle=elbowEdgeStyle;elbow=horizontal;rounded=0;fontColor=#000000;endArrow=none;endFill=0;strokeWidth=8;strokeColor=#23445D;entryX=0;entryY=0.5;entryDx=0;entryDy=0;exitX=0.5;exitY=1;exitDx=0;exitDy=0;" parent="1" source="PwZLuehJ7hWIkMbw8IJj-255" target="PwZLuehJ7hWIkMbw8IJj-258" edge="1">
          <mxGeometry width="100" height="100" relative="1" as="geometry">
            <mxPoint x="-40" y="339" as="sourcePoint" />
            <mxPoint x="-20" y="499" as="targetPoint" />
            <Array as="points">
              <mxPoint x="-40" y="439" />
            </Array>
          </mxGeometry>
        </mxCell>
        <mxCell id="PwZLuehJ7hWIkMbw8IJj-264" value="" style="edgeStyle=elbowEdgeStyle;elbow=horizontal;rounded=0;fontColor=#000000;endArrow=none;endFill=0;strokeWidth=8;strokeColor=#23445D;entryX=0;entryY=0.5;entryDx=0;entryDy=0;exitX=0.5;exitY=1;exitDx=0;exitDy=0;" parent="1" source="PwZLuehJ7hWIkMbw8IJj-255" target="PwZLuehJ7hWIkMbw8IJj-259" edge="1">
          <mxGeometry width="100" height="100" relative="1" as="geometry">
            <mxPoint x="-30" y="339" as="sourcePoint" />
            <mxPoint x="-10" y="579" as="targetPoint" />
            <Array as="points">
              <mxPoint x="-40" y="489" />
            </Array>
          </mxGeometry>
        </mxCell>
        <mxCell id="PwZLuehJ7hWIkMbw8IJj-266" value="Features" style="whiteSpace=wrap;rounded=1;fillColor=#999999;strokeColor=none;shadow=1;fontColor=#FFFFFF;fontStyle=0" parent="1" vertex="1">
          <mxGeometry x="-390" y="779" width="120" height="60" as="geometry" />
        </mxCell>
        <mxCell id="PwZLuehJ7hWIkMbw8IJj-267" value="" style="edgeStyle=elbowEdgeStyle;elbow=horizontal;rounded=0;fontColor=#000000;endArrow=none;endFill=0;strokeWidth=8;strokeColor=#23445D;entryX=0;entryY=0.5;entryDx=0;entryDy=0;exitX=0.5;exitY=1;exitDx=0;exitDy=0;" parent="1" target="PwZLuehJ7hWIkMbw8IJj-266" edge="1">
          <mxGeometry width="100" height="100" relative="1" as="geometry">
            <mxPoint x="-410" y="729" as="sourcePoint" />
            <mxPoint x="-360" y="1179" as="targetPoint" />
            <Array as="points">
              <mxPoint x="-410" y="829" />
            </Array>
          </mxGeometry>
        </mxCell>
        <mxCell id="PwZLuehJ7hWIkMbw8IJj-268" value="Aptitude Test(Auto-Recommendation)" style="whiteSpace=wrap;rounded=1;fillColor=#d5e8d4;strokeColor=#82b366;shadow=1;fontStyle=0" parent="1" vertex="1">
          <mxGeometry x="-740" y="759.0000000000001" width="120" height="60" as="geometry" />
        </mxCell>
        <mxCell id="PwZLuehJ7hWIkMbw8IJj-269" value="" style="edgeStyle=elbowEdgeStyle;elbow=horizontal;rounded=0;fontColor=#000000;endArrow=none;endFill=0;strokeWidth=8;strokeColor=#23445D;exitX=0.5;exitY=1;exitDx=0;exitDy=0;entryX=0;entryY=0.5;entryDx=0;entryDy=0;" parent="1" target="PwZLuehJ7hWIkMbw8IJj-268" edge="1">
          <mxGeometry width="100" height="100" relative="1" as="geometry">
            <mxPoint x="-780" y="709" as="sourcePoint" />
            <mxPoint x="-780" y="789" as="targetPoint" />
            <Array as="points">
              <mxPoint x="-780" y="759" />
            </Array>
          </mxGeometry>
        </mxCell>
        <mxCell id="PwZLuehJ7hWIkMbw8IJj-272" value="Basic Information&#xa;(eg. Opening Hours)" style="whiteSpace=wrap;rounded=1;fillColor=#999999;strokeColor=none;shadow=1;fontColor=#FFFFFF;fontStyle=0" parent="1" vertex="1">
          <mxGeometry x="-390" y="859" width="120" height="60" as="geometry" />
        </mxCell>
        <mxCell id="PwZLuehJ7hWIkMbw8IJj-273" value="" style="edgeStyle=elbowEdgeStyle;elbow=horizontal;rounded=0;fontColor=#000000;endArrow=none;endFill=0;strokeWidth=8;strokeColor=#23445D;entryX=0;entryY=0.5;entryDx=0;entryDy=0;exitX=0.5;exitY=1;exitDx=0;exitDy=0;" parent="1" target="PwZLuehJ7hWIkMbw8IJj-272" edge="1">
          <mxGeometry width="100" height="100" relative="1" as="geometry">
            <mxPoint x="-410" y="809" as="sourcePoint" />
            <mxPoint x="-360" y="1259" as="targetPoint" />
            <Array as="points">
              <mxPoint x="-410" y="909" />
            </Array>
          </mxGeometry>
        </mxCell>
        <mxCell id="PwZLuehJ7hWIkMbw8IJj-274" value="Basic Information&#xa;(eg. age, sex etc.)" style="whiteSpace=wrap;rounded=1;fillColor=#999999;strokeColor=none;shadow=1;fontColor=#FFFFFF;fontStyle=0" parent="1" vertex="1">
          <mxGeometry x="-740" y="839" width="120" height="60" as="geometry" />
        </mxCell>
        <mxCell id="PwZLuehJ7hWIkMbw8IJj-275" value="" style="edgeStyle=elbowEdgeStyle;elbow=horizontal;rounded=0;fontColor=#000000;endArrow=none;endFill=0;strokeWidth=8;strokeColor=#23445D;exitX=0.5;exitY=1;exitDx=0;exitDy=0;entryX=0;entryY=0.5;entryDx=0;entryDy=0;" parent="1" target="PwZLuehJ7hWIkMbw8IJj-274" edge="1">
          <mxGeometry width="100" height="100" relative="1" as="geometry">
            <mxPoint x="-780" y="789" as="sourcePoint" />
            <mxPoint x="-780" y="869" as="targetPoint" />
            <Array as="points">
              <mxPoint x="-780" y="839" />
            </Array>
          </mxGeometry>
        </mxCell>
        <mxCell id="LRGhZT7GojGfpb7mA8rz-231" value="List Bars &amp; Filtering" style="whiteSpace=wrap;rounded=1;fillColor=#d5e8d4;strokeColor=#82b366;shadow=1;fontStyle=0;" parent="1" vertex="1">
          <mxGeometry x="-740" y="919" width="120" height="60" as="geometry" />
        </mxCell>
        <mxCell id="LRGhZT7GojGfpb7mA8rz-232" value="" style="edgeStyle=elbowEdgeStyle;elbow=horizontal;rounded=0;fontColor=#000000;endArrow=none;endFill=0;strokeWidth=8;strokeColor=#23445D;exitX=0.5;exitY=1;exitDx=0;exitDy=0;entryX=0;entryY=0.5;entryDx=0;entryDy=0;" parent="1" edge="1">
          <mxGeometry width="100" height="100" relative="1" as="geometry">
            <mxPoint x="-780" y="869" as="sourcePoint" />
            <mxPoint x="-740" y="949" as="targetPoint" />
            <Array as="points">
              <mxPoint x="-780" y="989" />
            </Array>
          </mxGeometry>
        </mxCell>
        <mxCell id="LRGhZT7GojGfpb7mA8rz-233" value="Review &amp; Rating" style="whiteSpace=wrap;rounded=1;fillColor=#d5e8d4;strokeColor=#82b366;shadow=1;fontStyle=0;" parent="1" vertex="1">
          <mxGeometry x="-740" y="999" width="120" height="60" as="geometry" />
        </mxCell>
        <mxCell id="LRGhZT7GojGfpb7mA8rz-234" value="" style="edgeStyle=elbowEdgeStyle;elbow=horizontal;rounded=0;fontColor=#000000;endArrow=none;endFill=0;strokeWidth=8;strokeColor=#23445D;exitX=0.5;exitY=1;exitDx=0;exitDy=0;entryX=0;entryY=0.5;entryDx=0;entryDy=0;" parent="1" edge="1">
          <mxGeometry width="100" height="100" relative="1" as="geometry">
            <mxPoint x="-780" y="949" as="sourcePoint" />
            <mxPoint x="-740" y="1029" as="targetPoint" />
            <Array as="points">
              <mxPoint x="-780" y="1069" />
            </Array>
          </mxGeometry>
        </mxCell>
        <mxCell id="LRGhZT7GojGfpb7mA8rz-235" value="Create&#xa; personalized List" style="whiteSpace=wrap;rounded=1;fillColor=#d5e8d4;strokeColor=#82b366;shadow=1;fontStyle=0;" parent="1" vertex="1">
          <mxGeometry x="-740" y="1079" width="120" height="60" as="geometry" />
        </mxCell>
        <mxCell id="LRGhZT7GojGfpb7mA8rz-236" value="" style="edgeStyle=elbowEdgeStyle;elbow=horizontal;rounded=0;fontColor=#000000;endArrow=none;endFill=0;strokeWidth=8;strokeColor=#23445D;exitX=0.5;exitY=1;exitDx=0;exitDy=0;entryX=0;entryY=0.5;entryDx=0;entryDy=0;" parent="1" edge="1">
          <mxGeometry width="100" height="100" relative="1" as="geometry">
            <mxPoint x="-780" y="1029" as="sourcePoint" />
            <mxPoint x="-740" y="1109" as="targetPoint" />
            <Array as="points">
              <mxPoint x="-780" y="1149" />
            </Array>
          </mxGeometry>
        </mxCell>
        <mxCell id="LRGhZT7GojGfpb7mA8rz-237" value="Manage Bar Info." style="whiteSpace=wrap;rounded=1;fillColor=#d5e8d4;strokeColor=#82b366;shadow=1;fontStyle=0;" parent="1" vertex="1">
          <mxGeometry x="-370" y="939" width="120" height="60" as="geometry" />
        </mxCell>
        <mxCell id="LRGhZT7GojGfpb7mA8rz-238" value="" style="edgeStyle=elbowEdgeStyle;elbow=horizontal;rounded=0;fontColor=#000000;endArrow=none;endFill=0;strokeWidth=8;strokeColor=#23445D;exitX=0.5;exitY=1;exitDx=0;exitDy=0;entryX=0;entryY=0.5;entryDx=0;entryDy=0;" parent="1" edge="1">
          <mxGeometry width="100" height="100" relative="1" as="geometry">
            <mxPoint x="-410" y="889" as="sourcePoint" />
            <mxPoint x="-370" y="969" as="targetPoint" />
            <Array as="points">
              <mxPoint x="-410" y="1009" />
            </Array>
          </mxGeometry>
        </mxCell>
        <mxCell id="D6FfgWbDQGJqdiZfFgGo-233" value="" style="edgeStyle=elbowEdgeStyle;elbow=vertical;rounded=0;fontColor=#000000;endArrow=none;endFill=0;strokeWidth=8;strokeColor=#23445D;exitX=0.5;exitY=1;exitDx=0;exitDy=0;" edge="1" parent="1" source="2" target="D6FfgWbDQGJqdiZfFgGo-232">
          <mxGeometry width="100" height="100" relative="1" as="geometry">
            <mxPoint x="-735" y="229" as="sourcePoint" />
            <mxPoint x="-1040" y="309" as="targetPoint" />
            <Array as="points">
              <mxPoint x="-870" y="229" />
            </Array>
          </mxGeometry>
        </mxCell>
        <mxCell id="D6FfgWbDQGJqdiZfFgGo-232" value="Login &amp; Registration" style="whiteSpace=wrap;rounded=1;fillColor=#F2931E;strokeColor=none;shadow=1;fontColor=#FFFFFF;fontStyle=1;fontSize=14" vertex="1" parent="1">
          <mxGeometry x="-1150" y="268.9999999999998" width="140" height="60" as="geometry" />
        </mxCell>
        <mxCell id="D6FfgWbDQGJqdiZfFgGo-234" value="Choose Identity" style="whiteSpace=wrap;rounded=1;fillColor=#d5e8d4;strokeColor=#82b366;shadow=1;fontStyle=0;" vertex="1" parent="1">
          <mxGeometry x="-1040" y="379.0000000000001" width="120" height="60" as="geometry" />
        </mxCell>
        <mxCell id="D6FfgWbDQGJqdiZfFgGo-235" value="" style="edgeStyle=elbowEdgeStyle;elbow=horizontal;rounded=0;fontColor=#000000;endArrow=none;endFill=0;strokeWidth=8;strokeColor=#23445D;exitX=0.5;exitY=1;exitDx=0;exitDy=0;entryX=0;entryY=0.5;entryDx=0;entryDy=0;" edge="1" parent="1">
          <mxGeometry width="100" height="100" relative="1" as="geometry">
            <mxPoint x="-1080" y="329" as="sourcePoint" />
            <mxPoint x="-1040" y="409" as="targetPoint" />
            <Array as="points">
              <mxPoint x="-1080" y="449" />
            </Array>
          </mxGeometry>
        </mxCell>
        <mxCell id="D6FfgWbDQGJqdiZfFgGo-236" value="Create &amp; Verify User Name" style="whiteSpace=wrap;rounded=1;fillColor=#d5e8d4;strokeColor=#82b366;shadow=1;fontStyle=0;" vertex="1" parent="1">
          <mxGeometry x="-1040" y="459.0000000000001" width="120" height="60" as="geometry" />
        </mxCell>
        <mxCell id="D6FfgWbDQGJqdiZfFgGo-237" value="" style="edgeStyle=elbowEdgeStyle;elbow=horizontal;rounded=0;fontColor=#000000;endArrow=none;endFill=0;strokeWidth=8;strokeColor=#23445D;exitX=0.5;exitY=1;exitDx=0;exitDy=0;entryX=0;entryY=0.5;entryDx=0;entryDy=0;" edge="1" parent="1">
          <mxGeometry width="100" height="100" relative="1" as="geometry">
            <mxPoint x="-1080" y="409" as="sourcePoint" />
            <mxPoint x="-1040" y="489" as="targetPoint" />
            <Array as="points">
              <mxPoint x="-1080" y="529" />
            </Array>
          </mxGeometry>
        </mxCell>
        <mxCell id="D6FfgWbDQGJqdiZfFgGo-238" value="Create &amp; Verify Password" style="whiteSpace=wrap;rounded=1;fillColor=#d5e8d4;strokeColor=#82b366;shadow=1;fontStyle=0;" vertex="1" parent="1">
          <mxGeometry x="-1040" y="539.0000000000001" width="120" height="60" as="geometry" />
        </mxCell>
        <mxCell id="D6FfgWbDQGJqdiZfFgGo-239" value="" style="edgeStyle=elbowEdgeStyle;elbow=horizontal;rounded=0;fontColor=#000000;endArrow=none;endFill=0;strokeWidth=8;strokeColor=#23445D;exitX=0.5;exitY=1;exitDx=0;exitDy=0;entryX=0;entryY=0.5;entryDx=0;entryDy=0;" edge="1" parent="1">
          <mxGeometry width="100" height="100" relative="1" as="geometry">
            <mxPoint x="-1080" y="489" as="sourcePoint" />
            <mxPoint x="-1040" y="569" as="targetPoint" />
            <Array as="points">
              <mxPoint x="-1080" y="609" />
            </Array>
          </mxGeometry>
        </mxCell>
        <mxCell id="D6FfgWbDQGJqdiZfFgGo-240" value="Performance Analytics (eg. Revenue, Cost, Best-Seller)" style="whiteSpace=wrap;rounded=1;fillColor=#d5e8d4;strokeColor=#82b366;shadow=1;fontStyle=0;" vertex="1" parent="1">
          <mxGeometry x="-370" y="1019" width="120" height="60" as="geometry" />
        </mxCell>
        <mxCell id="D6FfgWbDQGJqdiZfFgGo-241" value="" style="edgeStyle=elbowEdgeStyle;elbow=horizontal;rounded=0;fontColor=#000000;endArrow=none;endFill=0;strokeWidth=8;strokeColor=#23445D;exitX=0.5;exitY=1;exitDx=0;exitDy=0;entryX=0;entryY=0.5;entryDx=0;entryDy=0;" edge="1" parent="1">
          <mxGeometry width="100" height="100" relative="1" as="geometry">
            <mxPoint x="-410" y="969" as="sourcePoint" />
            <mxPoint x="-370" y="1049" as="targetPoint" />
            <Array as="points">
              <mxPoint x="-410" y="1089" />
            </Array>
          </mxGeometry>
        </mxCell>
        <mxCell id="D6FfgWbDQGJqdiZfFgGo-242" value="View &amp; Reply to Customer Review &amp; Rating" style="whiteSpace=wrap;rounded=1;fillColor=#d5e8d4;strokeColor=#82b366;shadow=1;fontStyle=0;" vertex="1" parent="1">
          <mxGeometry x="-370" y="1099" width="120" height="60" as="geometry" />
        </mxCell>
        <mxCell id="D6FfgWbDQGJqdiZfFgGo-243" value="" style="edgeStyle=elbowEdgeStyle;elbow=horizontal;rounded=0;fontColor=#000000;endArrow=none;endFill=0;strokeWidth=8;strokeColor=#23445D;exitX=0.5;exitY=1;exitDx=0;exitDy=0;entryX=0;entryY=0.5;entryDx=0;entryDy=0;" edge="1" parent="1">
          <mxGeometry width="100" height="100" relative="1" as="geometry">
            <mxPoint x="-410" y="1049" as="sourcePoint" />
            <mxPoint x="-370" y="1129" as="targetPoint" />
            <Array as="points">
              <mxPoint x="-410" y="1169" />
            </Array>
          </mxGeometry>
        </mxCell>
        <mxCell id="D6FfgWbDQGJqdiZfFgGo-244" value="Analyse Customer Feedback" style="whiteSpace=wrap;rounded=1;fillColor=#d5e8d4;strokeColor=#82b366;shadow=1;fontStyle=0;" vertex="1" parent="1">
          <mxGeometry x="-370" y="1179" width="120" height="60" as="geometry" />
        </mxCell>
        <mxCell id="D6FfgWbDQGJqdiZfFgGo-245" value="" style="edgeStyle=elbowEdgeStyle;elbow=horizontal;rounded=0;fontColor=#000000;endArrow=none;endFill=0;strokeWidth=8;strokeColor=#23445D;exitX=0.5;exitY=1;exitDx=0;exitDy=0;entryX=0;entryY=0.5;entryDx=0;entryDy=0;" edge="1" parent="1">
          <mxGeometry width="100" height="100" relative="1" as="geometry">
            <mxPoint x="-410" y="1129" as="sourcePoint" />
            <mxPoint x="-370" y="1209" as="targetPoint" />
            <Array as="points">
              <mxPoint x="-410" y="1249" />
            </Array>
          </mxGeometry>
        </mxCell>
      </root>
    </mxGraphModel>
  </diagram>
</mxfile>
